<svg xmlns="http://www.w3.org/2000/svg" version="1.1" xmlns:xlink="http://www.w3.org/1999/xlink" xmlns:svgjs="http://svgjs.dev/svgjs" width="1500" height="776" viewBox="0 0 1500 776"><g transform="matrix(1,0,0,1,-0.9090909090909918,-0.6647816498905854)"><svg viewBox="0 0 396 205" data-background-color="#ffffff" preserveAspectRatio="xMidYMid meet" height="776" width="1500" xmlns="http://www.w3.org/2000/svg" xmlns:xlink="http://www.w3.org/1999/xlink"><g id="tight-bounds" transform="matrix(1,0,0,1,0.2400000000000091,0.17561886369531976)"><svg viewBox="0 0 395.52 204.64876227260936" height="204.64876227260936" width="395.52"><g><svg viewBox="0 0 395.52 204.64876227260936" height="204.64876227260936" width="395.52"><g transform="matrix(1,0,0,1,0,126.48114518563048)"><svg viewBox="0 0 395.52 78.1676170869789" height="78.1676170869789" width="395.52"><g id="textblocktransform"><svg viewBox="0 0 395.52 78.1676170869789" height="78.1676170869789" width="395.52" id="textblock"><g><svg viewBox="0 0 395.52 78.1676170869789" height="78.1676170869789" width="395.52"><g transform="matrix(1,0,0,1,0,0)"><svg width="395.52" viewBox="4.19 -35.13 242.85 48.010000000000005" height="78.1676170869789" data-palette-color="#001f3f"><path d="M27.44-19.19L8.31-19.19 8.31-34.38 4.19-34.38 4.19 0 8.31 0 8.31-15.44 27.44-15.44 27.44 0 31.56 0 31.56-34.38 27.44-34.38 27.44-19.19ZM48.94-24.31Q53.69-24.31 56.25-21.47 58.81-18.63 58.81-13.44L58.81-13.44 58.81-11.25 58.56-10.75 42.12-10.75Q42.12-7.69 44.44-5.06L44.44-5.06Q46.62-2.88 51.25-2.88L51.25-2.88Q54.31-2.88 57.06-3.81L57.06-3.81 57.81-0.81Q54 0.5 50.12 0.5L50.12 0.5Q44.31 0.5 41.25-2.63 38.19-5.75 38.19-11.56L38.19-11.56Q38.19-17.06 40.87-20.63L40.87-20.63Q43.75-24.31 48.94-24.31L48.94-24.31ZM54.69-14Q54.69-17.13 53.34-19.13 52-21.13 49.37-21.13L49.37-21.13Q46.06-21.13 44.31-19.13 42.56-17.13 42.19-14L42.19-14 54.69-14ZM72.31-20.81Q71-20.81 69.15-20.53 67.31-20.25 65.87-19.81L65.87-19.81 65.06-22.81Q69.25-24.25 72.87-24.25L72.87-24.25Q76.93-24.25 79.06-23L79.06-23Q80.93-21.63 81.65-20.06 82.37-18.5 82.37-15.5L82.37-15.5 82.37 0 79.31 0 78.43-2.25Q74.87 0.63 71.12 0.63L71.12 0.63Q67.87 0.63 65.65-1.25 63.43-3.13 63.43-6L63.43-6Q63.43-8.81 65.15-10.66 66.87-12.5 69.37-13.13L69.37-13.13Q72.56-13.94 78.31-14.06L78.31-14.06 78.31-14.25Q78.31-16.81 77.81-18L77.81-18Q76.81-20.81 72.31-20.81L72.31-20.81ZM71.68-2.63Q73.75-2.63 75.31-3.34 76.87-4.06 78.31-5.38L78.31-5.38 78.31-11.13Q74-11.06 71.93-10.63L71.93-10.63Q69.62-10.13 68.5-9.16 67.37-8.19 67.37-6.44L67.37-6.44Q67.37-4.63 68.65-3.63 69.93-2.63 71.68-2.63L71.68-2.63ZM96.24-3.19Q97.18-3.19 98.37-3.56L98.37-3.56 99.12-0.63Q98.93-0.56 97.62 0 96.31 0.56 94.24 0.56L94.24 0.56Q91.93 0.56 90.56-1.03 89.18-2.63 89.12-5.19L89.12-5.19 89.12-33.31 93.06-33.31 93.06-6.63Q93.06-4.94 93.62-4.06 94.18-3.19 96.24-3.19L96.24-3.19ZM111.12 0.5Q107.49 0.5 105.96-1.47 104.43-3.44 104.43-7.44L104.43-7.44 104.43-20.63 100.37-20.63 100.37-24 104.43-24 104.43-29.88 108.49-30.19 108.49-24 116.37-24 116.37-20.63 108.49-20.63 108.49-7.69Q108.49-5.19 109.27-4.06 110.05-2.94 112.3-2.94L112.3-2.94Q114.43-2.94 116.12-3.31L116.12-3.31 116.8-0.56Q113.99 0.5 111.12 0.5L111.12 0.5ZM137.49-15.38Q137.49-18.44 136.3-19.81 135.11-21.19 132.18-21.19L132.18-21.19Q129.43-21.19 125.74-19.44L125.74-19.44 125.74 0 121.68 0 121.68-33.25 125.74-33.25 125.74-22.44Q129.93-24.63 133.74-24.63L133.74-24.63Q137.49-24.63 139.55-22.41 141.61-20.19 141.61-16.31L141.61-16.31 141.61 0 137.49 0 137.49-15.38ZM157.86-3.75Q161.61-3.75 164.11-5.09 166.61-6.44 166.61-9.06L166.61-9.06Q166.61-11.38 164.61-12.75 162.61-14.13 158.86-15.5L158.86-15.5 157.42-16.06Q152.74-17.94 150.42-19.94 148.11-21.94 148.11-25.5L148.11-25.5Q148.11-30.19 151.17-32.56L151.17-32.56Q152.99-33.94 154.99-34.53 156.99-35.13 159.67-35.13L159.67-35.13Q163.49-35.13 169.11-32.75L169.11-32.75 167.92-29.06Q162.92-31.06 160.17-31.06L160.17-31.06Q156.55-31.06 154.45-29.72 152.36-28.38 152.36-25.94L152.36-25.94Q152.36-24.25 153.45-23.06 154.55-21.88 155.89-21.22 157.24-20.56 159.67-19.56L159.67-19.56Q160.67-19.13 161.49-18.88L161.49-18.88Q164.74-17.56 166.58-16.53 168.42-15.5 169.74-13.75 171.05-12 171.05-9.31L171.05-9.31Q171.05-4.5 167.17-2 163.3 0.5 157.74 0.5L157.74 0.5Q154.86 0.5 152.99 0 151.11-0.5 147.3-1.81L147.3-1.81 148.74-5.81Q154.24-3.75 157.86-3.75L157.86-3.75ZM197.92-24L184.23 12.88 180.05 12.88 184.67 1.25 175.05-24 179.3-24 186.67-4.13 194.05-24 197.92-24ZM218.79-15.25Q218.79-18.31 217.64-19.63 216.48-20.94 213.61-20.94L213.61-20.94Q210.54-20.94 206.98-19.25L206.98-19.25 206.98 0 202.92 0 202.92-24 205.73-24 206.61-22Q210.92-24.38 215.04-24.38L215.04-24.38Q218.86-24.38 220.86-22.22 222.86-20.06 222.86-16.25L222.86-16.25 222.86 0 218.79 0 218.79-15.25ZM240.1 0.56Q234.54 0.56 231.51-2.63 228.48-5.81 228.48-11.56L228.48-11.56Q228.48-16.94 231.6-20.81L231.6-20.81Q234.73-24.31 240.92-24.31L240.92-24.31Q243.98-24.31 247.04-23L247.04-23 246.04-20Q243.85-20.94 241.1-20.94L241.1-20.94Q236.85-20.94 234.73-18.72 232.6-16.5 232.6-12.31L232.6-12.31Q232.6-6.94 235.17-4.88 237.73-2.81 241.48-2.81L241.48-2.81Q243.85-2.81 246.04-3.63L246.04-3.63 246.98-0.81Q243.35 0.56 240.1 0.56L240.1 0.56Z" opacity="1" transform="matrix(1,0,0,1,0,0)" fill="#001f3f" class="wordmark-text-0" data-fill-palette-color="primary" id="text-0"></path></svg></g></svg></g></svg></g></svg></g><g transform="matrix(1,0,0,1,143.74617659289757,0)"><svg viewBox="0 0 108.02764681420484 108.02764681420484" height="108.02764681420484" width="108.02764681420484"><g><svg></svg></g><g id="icon-0"><svg viewBox="0 0 108.02764681420484 108.02764681420484" height="108.02764681420484" width="108.02764681420484"><g><path transform="scale(1.08028,1.08028)" d="M30 100c-16.569 0-30-13.431-30-30v-40c0-16.569 13.431-30 30-30h40c16.569 0 30 13.431 30 30v40c0 16.569-13.431 30-30 30z" fill="#283132" fill-rule="nonzero" stroke="none" stroke-width="1" stroke-linecap="butt" stroke-linejoin="miter" stroke-miterlimit="10" stroke-dasharray="" stroke-dashoffset="0" font-family="none" font-weight="none" font-size="none" text-anchor="none" style="mix-blend-mode: normal" data-fill-palette-color="accent"></path></g><g transform="matrix(1,0,0,1,21.606044655164794,21.60552936284097)"><svg viewBox="0 0 64.81555750387525 64.8165880885229" height="64.8165880885229" width="64.81555750387525"><g><svg xmlns="http://www.w3.org/2000/svg" xmlns:xlink="http://www.w3.org/1999/xlink" version="1.1" x="0" y="0" viewBox="19.499985816758073 19.5 62.00001418324193 62.001000000000005" enable-background="new 0 0 100 100" xml:space="preserve" height="64.8165880885229" width="64.81555750387525" class="icon-dxe-0" data-fill-palette-color="quaternary" id="dxe-0"><g fill="#ffffff" data-fill-palette-color="quaternary"><path d="M46.964 47.671L50.009 50.716 53.75 36.75 39.784 40.491 43.429 44.136 26.686 60.88A25.8 25.8 0 0 1 24.5 50.5C24.5 36.164 36.164 24.5 50.5 24.5 57.812 24.5 64.424 27.538 69.152 32.413L72.686 28.879C67.052 23.099 59.19 19.5 50.5 19.5 33.407 19.5 19.5 33.407 19.5 50.5A30.84 30.84 0 0 0 25.61 68.956L27.131 67.435 27.166 67.47z" fill="#ffffff" data-fill-palette-color="quaternary"></path><path d="M75.89 32.746L72.292 36.344C72.311 36.373 72.327 36.404 72.346 36.433L54.036 54.742 50.284 50.99 46.543 64.956 60.509 61.215 57.571 58.277 74.737 41.111A25.8 25.8 0 0 1 76.5 50.5C76.5 64.837 64.837 76.5 50.5 76.5 43.493 76.5 37.13 73.709 32.449 69.187L28.915 72.721C34.501 78.149 42.114 81.501 50.5 81.501 67.594 81.501 81.5 67.595 81.5 50.501 81.5 43.899 79.42 37.779 75.89 32.746" fill="#ffffff" data-fill-palette-color="quaternary"></path></g></svg></g></svg></g></svg></g></svg></g><g></g></svg></g><defs></defs></svg><rect width="395.52" height="204.64876227260936" fill="none" stroke="none" visibility="hidden"></rect></g></svg></g></svg>